<svg width="368" height="161" viewBox="0 0 368 161" fill="none" xmlns="http://www.w3.org/2000/svg">
<mask id="mask0_2_17" style="mask-type:alpha" maskUnits="userSpaceOnUse" x="-11" y="0" width="429" height="161">
<path d="M90.3586 0.518797C91.7292 0.172932 92.7001 0.0576441 93.2712 0.172932C93.8422 0.172932 94.4133 0.230576 94.9844 0.345865C95.6697 0.807018 96.2408 1.38346 96.6977 2.07519C96.6977 4.49624 96.6406 6.91729 96.5264 9.33835C96.5264 11.6441 96.5264 14.0075 96.5264 16.4286C96.5264 20.8095 96.5835 25.1905 96.6977 29.5714C96.8119 33.9524 96.8119 38.3333 96.6977 42.7143C96.9261 43.7519 96.9832 44.3283 96.869 44.4436C96.7548 44.5589 96.6977 44.7318 96.6977 44.9624C96.6977 49.3434 96.8119 53.6667 97.0403 57.9323C97.2688 62.198 97.383 66.5213 97.383 70.9023V93.9023C97.383 98.8596 97.4972 103.759 97.7256 108.602C98.0683 113.444 98.2396 118.286 98.2396 123.128C98.2396 123.589 97.9541 124.223 97.383 125.03C97.1545 125.952 96.8119 126.702 96.355 127.278C95.3271 127.393 94.3562 127.221 93.4425 126.759C92.9856 126.759 92.643 126.932 92.4145 127.278C92.3003 127.509 92.0719 127.739 91.7292 127.97C90.8155 127.97 90.0731 128.2 89.502 128.662C88.9309 129.123 88.2456 129.353 87.4461 129.353C86.7608 129.353 86.0755 129.238 85.3902 129.008C84.8191 128.892 84.1338 128.835 83.3343 128.835C83.1058 128.835 82.7632 129.008 82.3063 129.353C81.8494 129.815 81.5068 130.103 81.2784 130.218C80.7073 130.218 80.1933 130.276 79.7364 130.391C79.2795 130.622 78.7656 130.737 78.1945 130.737C77.6234 130.276 77.3379 129.584 77.3379 128.662C77.4521 127.739 77.1094 127.163 76.3099 126.932C76.3099 126.356 76.3099 125.722 76.3099 125.03C76.4241 124.338 76.4812 123.647 76.4812 122.955C76.4812 118.459 76.367 113.962 76.1386 109.466C75.9101 104.855 75.7388 100.301 75.6246 95.8045C75.5104 93.8446 75.4533 91.9424 75.4533 90.0977C75.5675 88.1378 75.6246 86.1779 75.6246 84.218C75.6246 83.1804 75.6246 82.1429 75.6246 81.1053C75.6246 80.0677 75.5104 79.0877 75.2819 78.1654C74.5966 78.0501 73.9684 78.1654 73.3974 78.5113C72.9405 78.7419 72.4265 78.8571 71.8554 78.8571C69.4569 79.6642 67.8578 80.4712 67.0583 81.2782C66.373 81.2782 65.8019 81.3935 65.345 81.6241C64.8882 81.8546 64.3742 82.0852 63.8031 82.3158C62.8894 82.5464 61.9756 82.7769 61.0619 83.0075C60.2624 83.1228 59.4057 83.3534 58.492 83.6992C57.9209 83.9298 57.3498 84.1604 56.7788 84.391C56.2077 84.6216 55.6366 84.8521 55.0655 85.0827C53.8091 85.5439 52.5527 86.005 51.2963 86.4662C50.0399 86.812 48.7835 87.2155 47.5272 87.6767C46.2708 87.9073 45.1857 88.2531 44.272 88.7143C43.3582 89.1754 42.4445 89.6366 41.5307 90.0977C40.7312 95.5163 40.2744 100.704 40.1601 105.662C40.1601 110.504 40.3315 115.346 40.6741 120.188C40.4457 120.88 40.3315 121.687 40.3315 122.609C40.3315 123.416 40.1601 124.108 39.8175 124.684C38.5611 125.03 37.7045 125.088 37.2476 124.857C36.9049 124.511 36.5052 124.223 36.0483 123.992C35.5915 124.108 35.1917 124.338 34.849 124.684C34.6206 125.03 34.3922 125.318 34.1637 125.549C33.25 125.549 32.5076 125.779 31.9365 126.241C31.4796 126.586 31.0228 126.875 30.5659 127.105C30.2232 127.221 29.8806 127.221 29.5379 127.105C29.1953 126.99 28.7955 127.048 28.3387 127.278C27.1965 127.278 26.6254 127.163 26.6254 126.932C26.7396 126.586 26.6254 126.414 26.2827 126.414C25.8259 126.414 25.4832 126.644 25.2548 127.105C25.1406 127.451 24.855 127.739 24.3982 127.97C23.9413 128.2 23.4273 128.373 22.8562 128.489C22.2851 128.489 21.7141 128.604 21.143 128.835C20.5719 128.258 20.2863 127.624 20.2863 126.932C20.2863 126.241 20.0008 125.607 19.4297 125.03C19.2013 123.416 19.0299 121.86 18.9157 120.361C18.9157 118.747 18.7444 117.133 18.4018 115.519C18.6302 112.291 18.6873 109.697 18.5731 107.737C18.5731 105.777 18.5731 103.759 18.5731 101.684C18.5731 99.8396 18.516 97.995 18.4018 96.1504C18.2875 94.3058 18.1733 92.4612 18.0591 90.6165C17.8307 87.2732 17.6022 83.8722 17.3738 80.4135C17.2596 76.9549 17.2025 73.4962 17.2025 70.0376C17.2025 67.1554 17.3167 64.3308 17.5451 61.5639C17.8878 58.797 18.0591 55.9724 18.0591 53.0902C18.0591 51.1303 18.0591 49.2281 18.0591 47.3835C18.1733 45.4236 18.2304 43.4637 18.2304 41.5038C18.2304 39.8897 18.1733 38.3333 18.0591 36.8346C18.0591 35.2206 18.0591 33.6642 18.0591 32.1654C18.0591 30.4361 18.1733 28.7644 18.4018 27.1504C18.6302 25.4211 18.7444 23.7494 18.7444 22.1353C18.7444 20.1754 18.6302 18.2732 18.4018 16.4286C18.1733 14.4687 18.0591 12.5088 18.0591 10.5489C18.0591 9.97243 18.1162 9.45363 18.2304 8.99248C18.3446 8.41604 18.4018 7.8396 18.4018 7.26316C18.2875 5.99499 18.3446 5.24561 18.5731 5.01504C18.8015 4.66917 19.0299 4.26566 19.2584 3.80451C19.8295 3.68922 20.4577 3.51629 21.143 3.28571C21.8283 3.05514 22.4565 3.05514 23.0276 3.28571C23.7129 2.59398 24.6266 2.24812 25.7688 2.24812C27.0252 2.24812 27.9389 1.84461 28.51 1.03759C29.3095 1.15288 29.8235 1.21053 30.0519 1.21053C30.3946 1.09524 30.6801 1.03759 30.9085 1.03759C31.9365 1.26817 32.4505 1.26817 32.4505 1.03759C32.5647 0.691729 32.7931 0.518797 33.1358 0.518797C33.7069 0.518797 34.5635 0.576441 35.7057 0.691729C36.9621 0.691729 37.8187 0.922306 38.2756 1.38346C39.4177 7.49373 40.0459 13.7193 40.1601 20.0601C40.2744 26.401 40.3315 32.6842 40.3315 38.9098C40.3315 40.5238 40.3886 42.1955 40.5028 43.9248C40.617 45.5388 40.5599 47.1529 40.3315 48.7669C40.3315 49.4586 40.2744 50.1504 40.1601 50.8421C40.0459 51.4185 39.9888 52.0526 39.9888 52.7444C39.9888 54.7043 39.8746 56.7794 39.6462 58.9699C39.4177 61.0451 39.3035 63.0627 39.3035 65.0226C40.6741 65.8296 41.8163 66.1178 42.73 65.8872C43.758 65.5414 44.7288 65.1955 45.6426 64.8496C46.7847 64.5038 47.8127 64.1579 48.7264 63.812C49.7544 63.3509 50.7823 62.9474 51.8103 62.6015C52.724 62.1403 53.6949 61.7945 54.7228 61.5639C55.865 61.218 56.893 60.9298 57.8067 60.6992C60.7764 59.6617 63.6889 58.3935 66.5443 56.8947C69.3998 55.396 72.3123 54.1855 75.2819 53.2632C75.0535 46.9223 74.9393 40.6391 74.9393 34.4135C74.9393 28.0727 74.9393 21.7895 74.9393 15.5639C74.9393 13.8346 74.9393 12.0476 74.9393 10.203C74.9393 8.3584 75.0535 6.57143 75.2819 4.84211C75.3962 4.38095 75.5104 4.03509 75.6246 3.80451C75.853 3.45865 75.9672 2.99749 75.9672 2.42105C76.3099 1.84461 76.7097 1.4411 77.1665 1.21053C77.6234 0.97995 77.9661 0.634085 78.1945 0.172932C78.4229 0.403509 78.6514 0.634085 78.8798 0.864662C79.2224 0.97995 79.5651 1.09524 79.9077 1.21053C80.8215 0.97995 81.3355 0.807018 81.4497 0.691729C81.6781 0.576441 81.9065 0.461153 82.135 0.345865C82.7061 0.115288 83.4485 0 84.3622 0C85.276 0 86.0184 0 86.5895 0H88.6454L90.3586 0.518797Z" fill="white"/>
<path d="M174.632 116.729C173.489 116.845 172.804 116.787 172.576 116.556C172.119 116.787 171.662 117.018 171.205 117.248C170.862 117.479 170.463 117.767 170.006 118.113C168.407 118.689 166.808 119.439 165.209 120.361C163.724 121.283 162.182 122.148 160.583 122.955C159.669 123.416 158.755 123.82 157.842 124.165C157.042 124.396 156.186 124.742 155.272 125.203C153.901 125.895 152.531 126.644 151.16 127.451C149.789 128.143 148.362 128.777 146.877 129.353C146.077 129.584 145.278 129.815 144.478 130.045C143.793 130.276 143.051 130.506 142.251 130.737C141.337 131.083 140.481 131.486 139.681 131.947C138.996 132.293 138.253 132.639 137.454 132.985C136.883 133.216 136.255 133.446 135.569 133.677C134.998 133.792 134.37 134.023 133.685 134.368C133.114 134.599 132.6 134.887 132.143 135.233C131.8 135.579 131.343 135.867 130.772 136.098C129.858 136.444 128.888 136.789 127.86 137.135C126.946 137.481 126.032 137.885 125.118 138.346C124.205 138.807 123.519 139.211 123.062 139.556C122.72 140.018 121.977 140.421 120.835 140.767C119.693 141.459 119.065 141.805 118.951 141.805C118.836 141.92 118.665 141.977 118.437 141.977C118.094 142.208 117.751 142.381 117.409 142.496C117.18 142.727 116.895 142.957 116.552 143.188C115.867 143.188 115.182 143.246 114.496 143.361C113.811 143.476 113.126 143.534 112.44 143.534C111.641 143.073 111.07 142.612 110.727 142.15C110.499 141.689 110.384 141.055 110.384 140.248C109.928 139.672 109.471 139.038 109.014 138.346C108.671 137.654 108.271 137.02 107.814 136.444C107.015 136.905 106.501 136.905 106.273 136.444C106.158 135.867 106.044 135.291 105.93 134.714C105.816 134.023 105.701 133.388 105.587 132.812C105.473 132.12 105.359 131.659 105.245 131.429C104.674 129.238 104.388 127.624 104.388 126.586C104.388 126.01 104.502 125.664 104.731 125.549C104.959 125.318 105.073 125.03 105.073 124.684C105.187 123.531 105.302 122.206 105.416 120.707C105.53 119.208 105.587 117.652 105.587 116.038C105.587 114.424 105.587 112.81 105.587 111.195C105.587 109.581 105.587 108.14 105.587 106.872C105.587 101.684 105.53 96.6692 105.416 91.8271C105.302 86.8697 105.245 81.9123 105.245 76.9549C105.245 74.6491 105.302 72.3434 105.416 70.0376C105.53 67.7318 105.587 65.4261 105.587 63.1203C105.587 57.4712 105.644 51.8797 105.759 46.3459C105.987 40.812 106.101 35.2206 106.101 29.5714C106.101 27.2657 105.987 24.9599 105.759 22.6541C105.53 20.2331 105.359 17.812 105.245 15.391C105.13 14.1228 105.187 13.1429 105.416 12.4511C105.644 11.6441 105.701 10.8371 105.587 10.0301C105.93 9.91479 106.558 9.85714 107.472 9.85714C108.386 9.85714 109.299 9.85714 110.213 9.85714C111.241 9.74185 112.155 9.68421 112.954 9.68421C113.868 9.56892 114.439 9.45363 114.668 9.33835C115.467 9.91479 116.267 10.203 117.066 10.203C117.866 10.203 118.608 9.85714 119.293 9.16541C119.864 9.39599 120.15 9.56892 120.15 9.68421C120.264 9.7995 120.607 9.85714 121.178 9.85714C122.206 9.74185 123.005 9.68421 123.576 9.68421C124.148 9.56892 124.662 9.51128 125.118 9.51128C126.375 10.4336 127.117 11.5865 127.346 12.9699C127.688 14.2381 127.917 15.6216 128.031 17.1203C128.145 18.5038 128.202 19.9449 128.202 21.4436C128.316 22.8271 128.374 23.9799 128.374 24.9023C128.374 25.594 128.431 26.3434 128.545 27.1504C128.659 27.8421 128.716 28.5915 128.716 29.3985C128.716 29.9749 128.659 30.5514 128.545 31.1278C128.545 31.7043 128.545 32.2807 128.545 32.8571C128.545 36.2005 128.545 39.6015 128.545 43.0601C128.659 46.5188 128.716 49.9198 128.716 53.2632C128.716 59.2581 128.602 65.3108 128.374 71.4211C128.259 77.416 128.202 83.411 128.202 89.406C128.202 90.6742 128.259 91.9424 128.374 93.2105C128.488 94.4787 128.545 95.7469 128.545 97.015C128.545 97.7068 128.488 98.3985 128.374 99.0902C128.374 99.782 128.374 100.474 128.374 101.165C128.374 105.431 128.545 109.697 128.888 113.962C129.344 113.847 130.315 113.559 131.8 113.098C133.285 112.521 134.827 111.945 136.426 111.368C138.025 110.677 139.51 110.043 140.88 109.466C142.251 108.774 143.108 108.256 143.45 107.91C143.907 107.91 144.535 107.737 145.335 107.391C146.134 107.045 146.991 106.642 147.905 106.18C148.818 105.604 149.675 105.085 150.475 104.624C151.388 104.163 152.017 103.759 152.359 103.414C152.245 101.108 152.188 98.802 152.188 96.4962C152.188 94.0752 152.188 91.7118 152.188 89.406C152.188 83.0652 152.245 76.7243 152.359 70.3835C152.588 64.0426 152.702 57.5865 152.702 51.015C152.702 46.9799 152.645 42.9449 152.531 38.9098C152.416 34.8747 152.359 30.8396 152.359 26.8045C152.359 25.5363 152.359 24.2682 152.359 23C152.473 21.6165 152.531 20.2907 152.531 19.0226C152.531 17.0627 152.473 15.1604 152.359 13.3158C152.359 11.3559 152.473 9.39599 152.702 7.43609C153.844 6.85965 154.472 6.57143 154.586 6.57143C155.272 6.57143 155.729 6.57143 155.957 6.57143C156.3 6.57143 156.585 6.68672 156.814 6.91729C157.156 7.03258 157.442 7.09023 157.67 7.09023C158.013 6.97494 158.356 6.91729 158.698 6.91729C159.269 6.91729 159.84 7.03258 160.412 7.26316C160.983 7.49373 161.554 7.60902 162.125 7.60902C163.039 7.49373 163.495 7.60902 163.495 7.95489C163.61 8.30075 163.838 8.47368 164.181 8.47368C165.094 8.12782 165.723 8.12782 166.065 8.47368C166.408 8.70426 167.036 9.05013 167.95 9.51128C168.864 9.85714 169.834 10.2607 170.862 10.7218C171.89 11.183 172.804 11.6441 173.604 12.1053C174.403 12.4511 174.803 12.797 174.803 13.1429C175.146 14.9875 175.26 16.9474 175.146 19.0226C175.031 21.0977 174.974 23.0576 174.974 24.9023C174.974 26.5163 175.031 28.1303 175.146 29.7444C175.26 31.3584 175.317 32.9724 175.317 34.5865C175.317 35.5088 175.317 36.4311 175.317 37.3534C175.317 38.2757 175.374 39.1403 175.488 39.9474C175.602 40.5238 175.66 41.0426 175.66 41.5038C175.66 41.8496 175.66 42.2531 175.66 42.7143C175.66 43.2907 175.774 44.0401 176.002 44.9624C175.888 45.5388 175.831 46.1729 175.831 46.8647C175.831 47.4411 175.831 48.0175 175.831 48.594C175.831 50.208 175.888 51.8797 176.002 53.609C176.116 55.3383 176.174 57.0677 176.174 58.797C176.174 59.9499 176.059 61.0451 175.831 62.0827C175.717 63.1203 175.66 64.1579 175.66 65.1955L175.831 68.4812C175.831 69.6341 175.888 70.787 176.002 71.9398C176.116 73.0927 176.174 74.3033 176.174 75.5714C176.174 76.1479 176.116 76.7243 176.002 77.3008C176.002 77.8772 175.945 78.4536 175.831 79.0301C175.717 79.6065 175.66 80.2406 175.66 80.9323C175.66 81.6241 175.66 82.2581 175.66 82.8346C175.66 84.4486 175.717 86.0627 175.831 87.6767C175.945 89.2907 176.002 90.9048 176.002 92.5188C176.002 93.5564 175.945 94.594 175.831 95.6316C175.831 96.5539 175.831 97.5338 175.831 98.5714C175.831 100.647 175.888 102.779 176.002 104.97C176.231 107.16 176.345 109.293 176.345 111.368C176.345 112.291 176.231 113.271 176.002 114.308C175.774 115.346 175.317 116.153 174.632 116.729Z" fill="white"/>
<path d="M227.057 123.647C226.829 124.338 226.715 124.972 226.715 125.549C226.715 126.241 226.772 126.932 226.886 127.624C227.114 128.316 227.229 129.008 227.229 129.699C227 131.774 226.829 133.043 226.715 133.504C226.029 134.08 224.602 134.772 222.432 135.579C220.376 136.271 217.863 137.02 214.893 137.827C212.038 138.519 208.897 139.268 205.47 140.075C202.158 140.767 198.96 141.459 195.876 142.15C192.792 142.842 189.937 143.419 187.31 143.88C184.797 144.456 182.912 144.86 181.656 145.09C181.085 145.206 180.514 145.321 179.943 145.436C179.486 145.667 178.972 145.897 178.401 146.128C177.83 146.243 177.259 146.243 176.687 146.128C176.116 146.128 175.545 146.243 174.974 146.474C174.632 146.474 174.289 146.301 173.946 145.955C173.718 145.609 173.489 145.321 173.261 145.09C173.261 144.398 173.147 143.88 172.918 143.534C172.69 143.188 172.404 142.9 172.062 142.669C171.833 142.439 171.605 142.208 171.376 141.977C171.148 141.632 171.034 141.113 171.034 140.421C170.805 139.499 170.463 138.807 170.006 138.346C169.663 137.769 169.492 137.251 169.492 136.789C169.035 135.291 168.807 133.965 168.807 132.812C168.807 132.236 168.864 131.774 168.978 131.429C169.092 131.083 169.263 130.737 169.492 130.391C170.177 130.16 170.691 129.872 171.034 129.526C171.376 129.18 171.833 128.892 172.404 128.662C173.09 128.316 174.061 128.028 175.317 127.797C176.573 127.451 177.944 127.105 179.429 126.759C180.914 126.414 182.341 126.068 183.712 125.722C185.082 125.376 186.225 125.03 187.138 124.684C187.481 124.569 187.824 124.511 188.166 124.511C188.509 124.511 188.795 124.396 189.023 124.165C188.795 122.321 188.623 120.476 188.509 118.632C188.509 116.787 188.395 115 188.166 113.271C188.166 112.464 188.109 111.657 187.995 110.85C187.881 110.043 187.824 109.293 187.824 108.602L187.995 104.97C187.995 100.589 187.824 96.208 187.481 91.8271C187.138 87.4461 186.967 83.0652 186.967 78.6842V72.8045C186.967 71.8822 186.91 71.0175 186.796 70.2105C186.796 69.4035 186.796 68.5388 186.796 67.6165C186.796 65.4261 186.796 63.3509 186.796 61.391C186.91 59.3158 186.967 57.183 186.967 54.9925V39.0827C184.454 38.5063 182.113 38.5639 179.943 39.2556C177.773 39.8321 175.545 40.2356 173.261 40.4662C172.461 39.6591 172.005 38.7945 171.89 37.8722C170.977 36.604 170.348 35.797 170.006 35.4511C169.663 35.1053 169.263 34.1253 168.807 32.5113C168.007 30.8972 167.322 29.9173 166.751 29.5714C166.294 29.1103 166.065 28.4185 166.065 27.4962C166.065 26.9198 166.18 26.5163 166.408 26.2857C166.751 26.0551 167.036 25.6516 167.265 25.0752C168.293 24.614 168.864 24.3258 168.978 24.2105C169.206 23.9799 169.435 23.807 169.663 23.6917C170.805 22.8847 172.119 22.3083 173.604 21.9624C175.088 21.6165 176.516 21.213 177.887 20.7519C179.029 20.406 180.114 20.0025 181.142 19.5414C182.17 19.0802 183.312 18.6767 184.568 18.3308C186.053 17.8697 187.538 17.4085 189.023 16.9474C190.508 16.4862 191.936 16.0827 193.306 15.7368C194.22 15.5063 195.076 15.4486 195.876 15.5639C196.79 15.5639 197.703 15.2757 198.617 14.6992C200.102 14.9298 201.644 14.9298 203.243 14.6992C204.956 14.3534 206.784 13.9499 208.725 13.4887C210.667 13.0276 212.552 12.6241 214.379 12.2782C216.207 11.9323 217.577 11.6441 218.491 11.4135C219.062 11.6441 219.462 11.9323 219.69 12.2782C219.919 12.6241 220.261 12.8546 220.718 12.9699C220.832 13.3158 220.947 13.7769 221.061 14.3534C221.175 14.8145 221.404 15.1604 221.746 15.391C221.746 16.6591 222.032 17.5815 222.603 18.1579C222.489 19.3108 222.66 20.6366 223.117 22.1353C223.688 23.5188 223.973 24.8446 223.973 26.1128C223.402 27.8421 222.432 28.9373 221.061 29.3985C219.805 29.8596 218.377 30.2632 216.778 30.609C215.293 30.9549 213.808 31.3008 212.323 31.6466C210.838 31.8772 209.639 32.1654 208.725 32.5113C208.725 34.1253 208.725 35.797 208.725 37.5263C208.84 39.2556 208.897 40.985 208.897 42.7143C208.897 44.3283 208.84 45.9424 208.725 47.5564C208.725 49.1704 208.725 50.7845 208.725 52.3985C208.725 54.8195 208.668 57.2982 208.554 59.8346C208.554 62.3709 208.554 64.9073 208.554 67.4436C208.554 71.0175 208.611 74.5915 208.725 78.1654C208.84 81.7393 209.011 85.3133 209.239 88.8872C209.354 89.4637 209.411 90.3283 209.411 91.4812C209.411 96.0927 209.468 100.647 209.582 105.143C209.811 109.524 210.153 114.078 210.61 118.805C212.095 118.92 213.237 118.689 214.037 118.113C214.608 118.113 215.122 117.997 215.578 117.767C216.15 117.536 216.664 117.306 217.12 117.075C217.806 116.96 218.719 116.787 219.862 116.556C221.118 116.211 221.918 116.038 222.26 116.038C223.288 116.153 223.916 116.153 224.145 116.038C224.487 116.729 225.001 117.248 225.687 117.594C225.915 118.632 226.086 119.669 226.201 120.707C226.429 121.629 226.715 122.609 227.057 123.647Z" fill="white"/>
<path d="M293.874 34.9323C293.646 35.3935 293.532 35.8546 293.532 36.3158C293.646 36.7769 293.703 37.2957 293.703 37.8722C293.475 39.2556 293.475 39.9474 293.703 39.9474C293.932 39.9474 294.046 40.0627 294.046 40.2932L292.846 42.0226C292.846 42.7143 292.675 43.3484 292.332 43.9248C292.104 44.5013 292.047 45.193 292.161 46C291.818 46.5764 291.476 47.1529 291.133 47.7293C290.905 48.3058 290.505 48.8822 289.934 49.4586H287.707C286.45 49.4586 285.08 49.5739 283.595 49.8045C282.224 49.9198 280.854 49.9774 279.483 49.9774C279.255 49.9774 278.969 49.9774 278.626 49.9774C278.284 49.8622 277.941 49.8045 277.598 49.8045C277.37 49.8045 277.084 49.8622 276.742 49.9774C276.399 49.9774 275.999 49.9774 275.543 49.9774C273.829 49.9774 272.116 49.9198 270.403 49.8045C268.804 49.5739 267.09 49.4586 265.263 49.4586C264.806 49.4586 264.349 49.4586 263.892 49.4586C263.436 49.4586 262.922 49.5163 262.35 49.6316C262.236 51.5915 262.122 53.609 262.008 55.6842C262.008 57.6441 262.008 59.6617 262.008 61.7368C262.008 62.3133 261.951 62.9474 261.836 63.6391C261.722 64.2155 261.665 64.792 261.665 65.3684C261.551 66.8672 261.437 68.3083 261.322 69.6917C261.322 71.0752 261.322 72.5163 261.322 74.015C261.322 77.2431 261.322 80.4712 261.322 83.6992C261.437 86.9273 261.551 90.213 261.665 93.5564C261.779 95.2857 261.894 96.9574 262.008 98.5714C262.122 100.185 262.179 101.857 262.179 103.586C262.179 107.506 262.122 111.426 262.008 115.346C261.894 119.15 261.836 123.013 261.836 126.932C261.836 128.2 261.779 129.411 261.665 130.564C261.551 131.602 261.494 132.754 261.494 134.023C261.494 136.674 261.551 139.326 261.665 141.977C261.779 144.629 261.836 147.281 261.836 149.932C261.836 151.2 261.779 152.469 261.665 153.737C261.665 155.005 261.665 156.273 261.665 157.541C261.094 158.464 260.694 159.271 260.466 159.962C260.237 160.654 259.552 161 258.41 161C257.61 160.769 257.211 160.481 257.211 160.135C257.325 159.905 257.268 159.674 257.039 159.444C256.011 159.328 255.212 159.386 254.641 159.617C254.184 159.962 253.613 160.251 252.928 160.481C252.585 160.366 252.185 160.308 251.728 160.308C251.386 160.308 251.043 160.308 250.7 160.308C250.472 160.308 250.243 160.366 250.015 160.481C249.787 160.712 249.273 160.827 248.473 160.827C247.788 160.942 247.388 160.827 247.274 160.481C247.16 160.135 246.817 159.962 246.246 159.962C245.675 160.308 244.989 160.539 244.19 160.654C243.505 160.885 242.819 161 242.134 161C241.449 160.539 241.106 160.078 241.106 159.617C241.22 159.271 241.163 158.867 240.935 158.406C240.82 158.175 240.592 157.887 240.249 157.541C240.021 157.08 239.793 156.734 239.564 156.504C239.793 154.89 239.964 153.449 240.078 152.18C240.192 150.912 240.249 149.529 240.249 148.03C240.249 145.033 240.135 142.093 239.907 139.211C239.678 136.328 239.564 133.388 239.564 130.391C239.564 129.469 239.678 128.489 239.907 127.451C240.135 126.414 240.249 125.318 240.249 124.165C240.021 123.243 239.964 122.724 240.078 122.609C240.192 122.378 240.249 122.148 240.249 121.917C240.249 121.226 240.192 120.534 240.078 119.842C240.078 119.15 240.078 118.459 240.078 117.767C240.078 116.383 240.078 115 240.078 113.617C240.192 112.233 240.249 110.85 240.249 109.466C240.249 108.89 240.192 108.313 240.078 107.737C240.078 107.045 240.078 106.411 240.078 105.835C239.964 104.797 239.907 103.702 239.907 102.549C240.021 101.396 240.078 100.243 240.078 99.0902C240.078 93.5564 239.964 88.0802 239.735 82.6617C239.621 77.2431 239.564 71.7669 239.564 66.2331C239.564 63.4662 239.678 60.7569 239.907 58.1053C240.249 55.3383 240.421 52.5714 240.421 49.8045C240.421 49.4586 240.307 48.9975 240.078 48.4211C239.85 47.8446 239.621 47.4411 239.393 47.2105C238.822 47.2105 238.251 47.2105 237.68 47.2105C237.223 47.0952 236.709 47.0376 236.138 47.0376C234.881 47.0376 233.682 47.2105 232.54 47.5564C230.37 47.6717 228.257 47.8446 226.201 48.0752C224.259 48.1905 222.26 48.3058 220.204 48.4211C218.834 48.3058 217.977 48.3058 217.634 48.4211C217.406 48.4211 217.12 48.4211 216.778 48.4211C215.864 48.4211 215.179 48.1905 214.722 47.7293V45.4812C214.037 44.0977 213.751 43.3484 213.865 43.2331C213.979 43.1178 214.037 42.9449 214.037 42.7143C214.037 42.3684 213.751 42.0226 213.18 41.6767C212.495 41.2155 212.152 40.5238 212.152 39.6015C212.038 38.6792 211.809 37.9875 211.467 37.5263C211.124 37.0652 210.953 36.604 210.953 36.1429C210.953 35.3358 211.124 34.4135 211.467 33.3759C212.495 32.7995 213.465 32.396 214.379 32.1654C215.407 31.9348 216.549 31.6466 217.806 31.3008C218.491 31.0702 219.119 30.8396 219.69 30.609C220.261 30.3784 220.89 30.2055 221.575 30.0902C222.374 29.9749 223.174 29.9173 223.973 29.9173C224.773 29.9173 225.572 29.8596 226.372 29.7444C228.085 29.3985 229.856 29.1103 231.683 28.8797C233.625 28.6491 235.452 28.5338 237.166 28.5338C238.765 28.5338 240.364 28.7644 241.963 29.2256C243.562 29.5714 244.989 29.7444 246.246 29.7444C248.073 29.7444 249.787 29.8596 251.386 30.0902C253.099 30.3208 254.869 30.4361 256.697 30.4361C256.925 30.4361 257.268 30.5514 257.725 30.782C258.296 30.8972 258.924 30.9549 259.609 30.9549H276.228C277.142 31.1855 277.77 31.2431 278.112 31.1278C278.569 31.0125 278.969 30.9549 279.312 30.9549C280.225 30.9549 281.082 31.0125 281.882 31.1278C282.681 31.2431 283.538 31.3008 284.451 31.3008C285.251 31.3008 285.879 31.2431 286.336 31.1278C287.25 31.2431 288.106 31.5313 288.906 31.9925C289.705 32.3383 290.619 32.5113 291.647 32.5113C292.104 32.8571 292.447 33.3183 292.675 33.8947C292.904 34.3559 293.303 34.7018 293.874 34.9323Z" fill="white"/>
<path d="M312.035 18.5038C312.606 20.5789 313.177 22.6541 313.748 24.7293C314.319 26.6892 315.005 28.6491 315.804 30.609C317.517 30.8396 318.545 31.0125 318.888 31.1278C319.345 31.2431 319.859 31.416 320.43 31.6466C321.686 34.6441 322.429 37.8722 322.657 41.3308C323 44.6742 323.457 47.9599 324.028 51.188C326.198 54.0702 327.74 57.183 328.654 60.5263C329.682 63.7544 330.824 67.0401 332.08 70.3835C332.423 71.5363 332.651 72.2857 332.765 72.6316C332.88 72.8622 332.937 73.0927 332.937 73.3233C333.622 75.2832 334.307 77.3008 334.993 79.3759C335.678 81.4511 336.42 83.4687 337.22 85.4286C337.562 86.4662 337.905 87.5038 338.248 88.5414C338.705 89.4637 339.104 90.386 339.447 91.3083C339.79 92.4612 340.075 93.6717 340.304 94.9398C340.646 96.0927 340.989 97.2456 341.332 98.3985C342.131 100.704 342.988 103.01 343.902 105.316C344.815 107.622 345.729 109.927 346.643 112.233C346.985 113.04 347.614 114.827 348.527 117.594C349.555 120.361 350.583 123.301 351.611 126.414C352.639 129.411 353.553 132.236 354.352 134.887C355.266 137.424 355.723 138.98 355.723 139.556C355.723 140.479 355.78 141.459 355.894 142.496C356.123 143.419 356.294 144.398 356.408 145.436C355.951 146.589 355.38 147.223 354.695 147.338C354.01 147.454 353.382 147.396 352.811 147.165C352.239 147.396 351.668 147.627 351.097 147.857C350.64 148.088 350.184 148.318 349.727 148.549C349.384 148.664 349.098 148.837 348.87 149.068C348.642 149.298 348.356 149.414 348.013 149.414C346.643 149.414 345.729 149.529 345.272 149.759C344.93 150.105 344.358 150.278 343.559 150.278C342.531 149.932 341.846 149.875 341.503 150.105C341.275 150.451 341.046 150.682 340.818 150.797C340.361 151.028 339.847 151.143 339.276 151.143C338.705 151.143 338.134 151.2 337.562 151.316C337.334 150.855 337.106 150.393 336.877 149.932C336.763 149.471 336.535 148.952 336.192 148.376C334.936 146.531 334.022 144.744 333.451 143.015C332.994 141.286 332.594 139.902 332.251 138.865C331.68 137.596 331.166 136.328 330.709 135.06C330.367 133.792 329.91 132.524 329.339 131.256C328.654 131.486 328.025 131.774 327.454 132.12C326.883 132.351 326.426 132.697 326.084 133.158C324.713 133.158 324.028 133.331 324.028 133.677C324.028 134.023 323.914 134.368 323.685 134.714C323 134.945 322.429 135.175 321.972 135.406C321.629 135.637 321.001 135.694 320.087 135.579C319.516 136.155 318.945 136.674 318.374 137.135C317.803 137.481 317.061 137.712 316.147 137.827C315.233 138.749 314.262 139.556 313.234 140.248C312.32 140.825 311.235 140.94 309.979 140.594C308.38 140.94 306.781 141.286 305.182 141.632C303.583 141.862 301.984 141.977 300.385 141.977C298.557 141.401 297.415 140.882 296.958 140.421C296.501 139.96 295.816 139.729 294.902 139.729C295.017 138.115 294.674 137.02 293.874 136.444C293.874 136.098 293.874 135.579 293.874 134.887C293.989 134.08 294.16 133.561 294.388 133.331C295.873 132.639 296.73 131.89 296.958 131.083C297.187 130.276 297.815 129.757 298.843 129.526C299.071 129.065 299.3 128.662 299.528 128.316C299.871 127.855 300.156 127.393 300.385 126.932C300.956 126.702 301.413 126.529 301.755 126.414C302.212 126.298 302.555 125.952 302.783 125.376C303.354 125.376 304.211 125.03 305.353 124.338C306.495 123.531 307.238 122.897 307.58 122.436C308.494 122.09 309.065 121.802 309.294 121.571C309.522 121.226 309.808 120.937 310.15 120.707C311.293 120.822 312.035 120.707 312.378 120.361C313.291 120.822 314.319 121.053 315.461 121.053C315.918 121.053 316.318 121.053 316.661 121.053C317.003 120.937 317.403 120.88 317.86 120.88C318.774 119.957 319.916 119.381 321.287 119.15C322.771 118.805 323.971 118.17 324.884 117.248C324.542 116.326 324.256 115.231 324.028 113.962C323.799 112.579 323.4 111.484 322.828 110.677C322.6 109.178 322.2 107.737 321.629 106.353C321.172 104.97 320.773 103.644 320.43 102.376C319.174 97.5338 317.689 92.807 315.975 88.1955C314.262 83.584 312.834 78.8571 311.692 74.015C311.464 73.4386 311.178 72.8622 310.836 72.2857C310.607 71.594 310.379 70.9599 310.15 70.3835C309.579 71.7669 309.294 72.5739 309.294 72.8045C309.294 72.9198 309.18 73.0927 308.951 73.3233C308.837 73.8997 308.723 74.4185 308.608 74.8797C308.494 75.2256 308.323 75.6867 308.094 76.2632C307.752 77.1855 307.409 78.2231 307.066 79.3759C306.838 80.4135 306.61 81.3935 306.381 82.3158C305.81 84.2757 305.296 86.3509 304.839 88.5414C304.382 90.6165 303.868 92.6917 303.297 94.7669C302.155 98.3408 300.956 101.915 299.699 105.489C298.557 108.947 297.415 112.464 296.273 116.038C296.045 117.652 295.759 118.92 295.416 119.842C295.188 120.649 294.902 121.514 294.56 122.436C294.331 123.243 294.103 124.05 293.874 124.857C293.76 125.664 293.703 126.298 293.703 126.759C292.104 130.449 290.733 134.195 289.591 138C288.563 141.805 287.25 145.494 285.651 149.068C285.194 149.298 284.794 149.586 284.451 149.932C284.109 150.278 283.709 150.451 283.252 150.451C282.338 150.451 281.824 150.221 281.71 149.759C281.71 149.298 281.482 149.068 281.025 149.068C280.568 149.068 280.168 149.183 279.826 149.414C279.483 149.529 279.14 149.702 278.798 149.932C278.227 149.702 277.541 149.529 276.742 149.414C276.057 149.414 275.543 149.183 275.2 148.722C274.4 149.298 273.601 149.586 272.801 149.586C271.888 149.586 270.974 149.298 270.06 148.722C269.375 148.952 268.689 149.068 268.004 149.068C267.662 149.068 267.262 149.01 266.805 148.895C266.348 148.779 266.005 148.607 265.777 148.376C265.663 147.915 265.606 147.454 265.606 146.992C265.606 146.531 265.606 146.013 265.606 145.436C265.606 144.283 265.491 143.419 265.263 142.842C267.319 136.962 269.318 131.025 271.259 125.03C273.201 118.92 275.143 112.752 277.084 106.526C278.112 103.644 279.083 100.82 279.997 98.0526C281.025 95.2857 281.996 92.4612 282.91 89.5789C283.366 87.9649 283.766 86.4662 284.109 85.0827C284.451 83.584 284.908 82.1429 285.479 80.7594C286.393 77.7619 287.307 74.7644 288.221 71.7669C289.249 68.6541 290.162 65.599 290.962 62.6015C291.419 62.2556 291.704 61.8521 291.818 61.391C291.933 60.9298 292.104 60.411 292.332 59.8346L292.161 57.5865C292.961 56.4336 293.475 55.4536 293.703 54.6466C294.046 53.7243 294.274 52.802 294.388 51.8797C294.959 50.4962 295.473 48.9975 295.93 47.3835C296.387 45.7694 296.73 44.2707 296.958 42.8872C297.187 41.0426 297.301 38.9674 297.301 36.6617C297.415 34.2406 297.758 32.2231 298.329 30.609C298.557 30.1479 298.729 29.8596 298.843 29.7444C299.071 29.5138 299.186 29.1103 299.186 28.5338C299.414 28.3033 299.642 28.0727 299.871 27.8421C300.213 27.4962 300.442 27.1504 300.556 26.8045C301.127 25.8822 301.299 25.0752 301.07 24.3835C300.956 23.6917 300.899 22.9424 300.899 22.1353C301.927 21.5589 302.384 21.0401 302.269 20.5789C302.155 20.1178 302.098 19.6566 302.098 19.1955C302.098 18.619 302.441 18.1003 303.126 17.6391C303.926 17.0627 304.439 16.4862 304.668 15.9098C305.353 16.0251 306.039 16.1404 306.724 16.2556C307.409 16.2556 308.094 16.198 308.78 16.0827C309.579 17.5815 310.55 18.3308 311.692 18.3308L312.035 18.5038Z" fill="white"/>
</mask>
<g mask="url(#mask0_2_17)">
<path d="M0 25.625L368 -11.5L332.299 153.5H41.194L0 25.625Z" fill="#D9D9D9"/>
<path d="M116.716 -17L219.701 0.875L201.851 236L107.104 183.75L116.716 -17Z" fill="#FF0000"/>
</g>
</svg>
